# xmcd
#
# Track frame offsets:
#	150
#	18394
#	39760
#	46803
#	58652
#	71517
#	88636
#	100321
#	135180
#	149459
#	166518
#	176734
#	190848
#	207453
#	220895
#	245334
#
# Disc length: 3512 seconds
# Revision: 0
# Processed by: cddbd v1.5.2PL0 Copyright (c) Steve Scherf et al.
# Submitted via: dBpowerAMP V12.0
#
DISCID=d70db610
DTITLE=Ethan Ballinger - Wish Upon a Falling Star
DYEAR=2008
DGENRE=Country
TTITLE0=Sticks And Stones May Break My Bones But Tanks Will Never Hurt Me
TTITLE1=Waving
TTITLE2=Goodbye
TTITLE3=Floating Away
TTITLE4=Foreign Policy
TTITLE5=Sea Minor
TTITLE6=Victory Is Yours
TTITLE7=The Fountain
TTITLE8=October
TTITLE9=Sit on My Face
TTITLE10=Bury My Heart in the Rust
TTITLE11=Skeletons Are Coming for Us
TTITLE12=Shadow
TTITLE13=Manic
TTITLE14=Tributaries
TTITLE15=Departure
EXTD=
EXTT0=
EXTT1=
EXTT2=
EXTT3=
EXTT4=
EXTT5=
EXTT6=
EXTT7=
EXTT8=
EXTT9=
EXTT10=
EXTT11=
EXTT12=
EXTT13=
EXTT14=
EXTT15=
PLAYORDER=
